<svg width="32" height="32" viewBox="0 0 32 32" fill="none" xmlns="http://www.w3.org/2000/svg">
<g clip-path="url(#clip0_2097_148)">
<path d="M32 16C32 15.6214 31.8028 15.1639 31.2507 15.0101C26.739 13.7481 23.9113 12.3086 21.8013 10.1987C19.6914 8.08874 18.248 5.26103 16.9899 0.749322C16.8361 0.19719 16.3786 0 16 0C15.6214 0 15.1639 0.19719 15.0101 0.749322C13.7481 5.26103 12.3086 8.08874 10.1987 10.1987C8.08479 12.3125 5.26103 13.752 0.749322 15.0101C0.19719 15.1639 0 15.6214 0 16C0 16.3786 0.19719 16.8361 0.749322 16.9899C5.26103 18.2519 8.08874 19.6914 10.1987 21.8013C12.3125 23.9152 13.752 26.739 15.0101 31.2507C15.1639 31.8028 15.6214 32 16 32C16.3786 32 16.8361 31.8028 16.9899 31.2507C18.2519 26.739 19.6914 23.9113 21.8013 21.8013C23.9152 19.6875 26.739 18.248 31.2507 16.9899C31.8028 16.8361 32 16.3786 32 16Z" fill="#FF0095"/>
</g>
<defs>
<clipPath id="clip0_2097_148">
<rect width="32" height="32" fill="white"/>
</clipPath>
</defs>
</svg>
