<svg width="42" height="42" viewBox="0 0 42 42" fill="none" xmlns="http://www.w3.org/2000/svg">
<circle cx="21" cy="21" r="21" fill="#FF0095"/>
<path d="M30 13C30 12.8817 29.9384 12.7387 29.7658 12.6907C28.3559 12.2963 27.4723 11.8464 26.8129 11.1871C26.1536 10.5277 25.7025 9.64407 25.3093 8.23416C25.2613 8.06162 25.1183 8 25 8C24.8817 8 24.7387 8.06162 24.6907 8.23416C24.2963 9.64407 23.8464 10.5277 23.1871 11.1871C22.5265 11.8477 21.6441 12.2975 20.2342 12.6907C20.0616 12.7387 20 12.8817 20 13C20 13.1183 20.0616 13.2613 20.2342 13.3093C21.6441 13.7037 22.5277 14.1536 23.1871 14.8129C23.8477 15.4735 24.2975 16.3559 24.6907 17.7658C24.7387 17.9384 24.8817 18 25 18C25.1183 18 25.2613 17.9384 25.3093 17.7658C25.7037 16.3559 26.1536 15.4723 26.8129 14.8129C27.4735 14.1523 28.3559 13.7025 29.7658 13.3093C29.9384 13.2613 30 13.1183 30 13Z" fill="white"/>
<path d="M13.5 10V25.5H22V28.5H10.5V10H13.5Z" fill="white"/>
</svg>
